<svg width="270" height="71" viewBox="0 0 270 71" fill="none" xmlns="http://www.w3.org/2000/svg">
    <path d="M79.683 48.0825C79.683 47.7228 79.3961 47.4314 79.042 47.4314H74.9146C74.5606 47.4314 74.2736 47.1399 74.2736 46.7803V46.0907C74.2736 45.7311 74.5606 45.4396 74.9146 45.4396H86.683C87.037 45.4396 87.324 45.7311 87.324 46.0907V46.7803C87.324 47.1399 87.037 47.4314 86.683 47.4314H82.5555C82.2015 47.4314 81.9145 47.7228 81.9145 48.0825V60.8141C81.9145 61.1737 81.6275 61.4652 81.2734 61.4652H80.3241C79.9701 61.4652 79.683 61.1737 79.683 60.8141V48.0825Z" fill="#1A1A1A"/>
    <path d="M99.027 55.467C99.027 55.4934 99.0267 55.5211 99.0259 55.5501C99.0174 55.8817 98.7348 56.1309 98.4082 56.1309H90.0186C89.6322 56.1309 89.3286 56.4786 89.4401 56.8545C89.66 57.5957 90.0683 58.2169 90.6648 58.718C91.4612 59.3589 92.4455 59.6795 93.6175 59.6795C94.7723 59.6795 95.7452 59.3599 96.5362 58.7206C96.8385 58.4763 97.2882 58.4783 97.5393 58.7766L97.9041 59.2101C98.1093 59.4539 98.1121 59.8169 97.8819 60.0366C97.414 60.4833 96.8641 60.8374 96.2321 61.0989C95.4357 61.4347 94.5417 61.6025 93.5499 61.6025C92.2877 61.6025 91.1682 61.3431 90.1915 60.8242C89.2148 60.29 88.456 59.5498 87.915 58.6035C87.3891 57.6572 87.1261 56.5888 87.1261 55.3984C87.1261 54.2231 87.3816 53.1624 87.8925 52.2161C88.4184 51.2698 89.1321 50.5373 90.0337 50.0183C90.9503 49.4841 91.9796 49.217 93.1217 49.217C94.2637 49.217 95.2779 49.4841 96.1645 50.0183C97.0661 50.5373 97.7648 51.2698 98.2607 52.2161C98.7716 53.1624 99.027 54.246 99.027 55.467ZM93.1217 51.0714C92.0848 51.0714 91.2133 51.3919 90.507 52.033C89.983 52.519 89.6231 53.119 89.4272 53.8332C89.3243 54.2086 89.6271 54.5513 90.0108 54.5513H96.2313C96.6154 54.5513 96.9184 54.2077 96.8119 53.8328C96.6127 53.1318 96.2466 52.5396 95.7137 52.0559C95.0225 51.3996 94.1584 51.0714 93.1217 51.0714Z" fill="#1A1A1A"/>
    <path d="M109.64 61.4652C109.438 61.4652 109.249 61.3692 109.128 61.206L106.38 57.5032C106.125 57.159 105.616 57.1573 105.359 57.5L102.57 61.2093C102.449 61.3706 102.261 61.4652 102.061 61.4652H101.27C100.738 61.4652 100.437 60.8446 100.762 60.4165L104.375 55.6579C104.553 55.424 104.553 55.0978 104.376 54.8636L100.984 50.3793C100.66 49.9511 100.961 49.3315 101.492 49.3315H102.286C102.486 49.3315 102.674 49.4261 102.796 49.5872L105.383 53.0252C105.64 53.3668 106.147 53.366 106.403 53.0235L108.97 49.5889C109.091 49.4268 109.28 49.3315 109.48 49.3315H110.224C110.756 49.3315 111.057 49.9526 110.731 50.3806L107.325 54.8615C107.146 55.0966 107.147 55.4249 107.326 55.6594L110.971 60.4142C111.299 60.8418 110.999 61.4652 110.465 61.4652H109.64Z" fill="#1A1A1A"/>
    <path d="M120.666 60.3145C120.778 60.5766 120.712 60.8883 120.471 61.0367C120.238 61.1807 119.975 61.3006 119.682 61.3965C119.217 61.5339 118.736 61.6025 118.24 61.6025C117.038 61.6025 116.106 61.2744 115.445 60.6181C114.784 59.9618 114.453 59.0232 114.453 57.8022V51.7912C114.453 51.4316 114.167 51.1401 113.812 51.1401H113.066C112.712 51.1401 112.425 50.8486 112.425 50.489V49.9826C112.425 49.623 112.712 49.3315 113.066 49.3315H113.812C114.167 49.3315 114.453 49.04 114.453 48.6804V47.3269C114.453 46.9673 114.741 46.6758 115.094 46.6758H115.976C116.33 46.6758 116.617 46.9673 116.617 47.3269V48.6804C116.617 49.04 116.904 49.3315 117.258 49.3315H119.402C119.756 49.3315 120.043 49.623 120.043 49.9826V50.489C120.043 50.8486 119.756 51.1401 119.402 51.1401H117.258C116.904 51.1401 116.617 51.4316 116.617 51.7912V57.7106C116.617 58.3669 116.775 58.8706 117.091 59.2216C117.421 59.5726 117.887 59.7481 118.488 59.7481C118.835 59.7481 119.155 59.6957 119.448 59.5907C119.847 59.4477 120.345 59.5651 120.514 59.9594L120.666 60.3145Z" fill="#1A1A1A"/>
    <path d="M124.012 44.3407C124.432 44.3407 124.778 44.4933 125.048 44.7986C125.334 45.0886 125.477 45.4549 125.477 45.8975C125.477 46.1264 125.454 46.3554 125.409 46.5843C125.364 46.7979 125.266 47.1109 125.116 47.5229L124.183 50.2881C124.094 50.5513 123.85 50.7281 123.577 50.7281H123.434C123.017 50.7281 122.712 50.3307 122.812 49.9201L123.31 47.8831C123.388 47.5608 123.201 47.2416 122.957 47.0208C122.882 46.9523 122.812 46.8755 122.75 46.7904C122.584 46.5309 122.502 46.2333 122.502 45.8975C122.502 45.4396 122.644 45.0657 122.93 44.7757C123.215 44.4857 123.576 44.3407 124.012 44.3407Z" fill="#1A1A1A"/>
    <path d="M134.956 49.217C136.474 49.217 137.676 49.6673 138.562 50.5678C139.464 51.453 139.915 52.7579 139.915 54.4826V60.8141C139.915 61.1737 139.628 61.4652 139.274 61.4652H138.392C138.038 61.4652 137.751 61.1737 137.751 60.8141V54.7344C137.751 53.5592 137.473 52.674 136.917 52.0788C136.361 51.4835 135.565 51.1859 134.528 51.1859C133.356 51.1859 132.432 51.5369 131.756 52.239C131.079 52.9258 130.741 53.9179 130.741 55.2152V60.8141C130.741 61.1737 130.454 61.4652 130.1 61.4652H129.218C128.865 61.4652 128.577 61.1737 128.577 60.8141V49.9826C128.577 49.623 128.865 49.3315 129.218 49.3315H130.216C130.456 49.3315 130.651 49.5293 130.651 49.7733C130.651 50.2042 131.267 50.4336 131.612 50.1829C131.854 50.0065 132.12 49.8524 132.409 49.7207C133.16 49.3849 134.009 49.217 134.956 49.217Z" fill="#1A1A1A"/>
    <path d="M150.388 45.4396C152.432 45.4396 154.039 45.9356 155.212 46.9277C156.384 47.9197 156.97 49.2857 156.97 51.0257C156.97 52.7656 156.384 54.1316 155.212 55.1237C154.039 56.1157 152.432 56.6117 150.388 56.6117H147.13C146.776 56.6117 146.489 56.9033 146.489 57.2628V60.8141C146.489 61.1737 146.202 61.4652 145.848 61.4652H144.876C144.522 61.4652 144.235 61.1737 144.235 60.8141V46.0907C144.235 45.7311 144.522 45.4396 144.876 45.4396H150.388ZM150.321 54.62C151.748 54.62 152.837 54.3147 153.589 53.7042C154.34 53.0785 154.716 52.1856 154.716 51.0257C154.716 49.8657 154.34 48.9805 153.589 48.37C152.837 47.7442 151.748 47.4314 150.321 47.4314H147.13C146.776 47.4314 146.489 47.7228 146.489 48.0825V53.9689C146.489 54.3285 146.776 54.62 147.13 54.62H150.321Z" fill="#1A1A1A"/>
    <path d="M164.206 49.217C165.859 49.217 167.12 49.6291 167.992 50.4533C168.879 51.2775 169.322 52.5061 169.322 54.1392V60.8141C169.322 61.1737 169.035 61.4652 168.681 61.4652H167.631C167.432 61.4652 167.271 61.3013 167.271 61.0992C167.271 60.7348 166.725 60.5379 166.435 60.7514C166.219 60.9099 165.979 61.0486 165.716 61.1676C165.055 61.4576 164.266 61.6025 163.349 61.6025C162.011 61.6025 160.937 61.2744 160.126 60.6181C159.329 59.9618 158.931 59.0995 158.931 58.0311C158.931 56.9628 159.314 56.1081 160.081 55.467C160.847 54.8108 162.064 54.4826 163.732 54.4826H166.73C166.967 54.4826 167.158 54.2878 167.158 54.0476C167.158 53.1013 166.888 52.3764 166.347 51.8727C165.806 51.3691 165.009 51.1172 163.958 51.1172C163.251 51.1172 162.56 51.2393 161.884 51.4835C161.489 51.6173 161.13 51.7796 160.807 51.9706C160.459 52.1764 159.989 52.0902 159.794 51.7325L159.532 51.2533C159.38 50.9762 159.445 50.6252 159.706 50.4509C160.224 50.1038 160.815 49.8299 161.478 49.6291C162.335 49.3544 163.244 49.217 164.206 49.217ZM163.71 59.9084C164.536 59.9084 165.25 59.7253 165.851 59.359C166.418 58.9991 166.838 58.5034 167.111 57.8721C167.143 57.7962 167.158 57.7138 167.158 57.631V56.7134C167.158 56.3538 166.871 56.0623 166.517 56.0623H163.822C161.989 56.0623 161.073 56.688 161.073 57.9396C161.073 58.5501 161.306 59.0308 161.771 59.3819C162.237 59.7329 162.883 59.9084 163.71 59.9084Z" fill="#1A1A1A"/>
    <path d="M182.694 49.3315C183.157 49.3315 183.468 49.8149 183.281 50.2453L177.885 62.6786C177.374 63.9149 176.773 64.7849 176.082 65.2885C175.405 65.7921 174.586 66.044 173.625 66.044C173.039 66.044 172.468 65.9448 171.912 65.7464C171.543 65.6215 171.216 65.4541 170.931 65.244C170.697 65.0718 170.658 64.7455 170.801 64.4907L171.078 63.9968C171.284 63.6293 171.775 63.5627 172.137 63.7726C172.589 64.0353 173.086 64.1667 173.625 64.1667C174.15 64.1667 174.586 64.0217 174.932 63.7317C175.293 63.457 175.616 62.9762 175.901 62.2894L176.164 61.7091C176.24 61.5395 176.242 61.3446 176.168 61.1739L171.408 50.246C171.221 49.8156 171.531 49.3315 171.994 49.3315H172.844C173.099 49.3315 173.33 49.4849 173.432 49.7222L176.843 57.6634C177.068 58.1854 177.797 58.1839 178.019 57.661L181.392 49.7246C181.493 49.486 181.724 49.3315 181.98 49.3315H182.694Z" fill="#1A1A1A"/>
    <path d="M201.28 61.4652C200.927 61.4652 200.64 61.1745 200.639 60.8154L200.622 52.147C200.621 51.4861 199.763 51.2473 199.431 51.8152L195.102 59.2012C194.986 59.3984 194.777 59.5193 194.551 59.5193H194.242C194.016 59.5193 193.808 59.3992 193.692 59.2029L189.367 51.8756C189.033 51.3091 188.176 51.5499 188.176 52.2104V60.8141C188.176 61.1737 187.889 61.4652 187.535 61.4652H186.653C186.299 61.4652 186.012 61.1737 186.012 60.8141V46.0907C186.012 45.7311 186.299 45.4396 186.653 45.4396H187.495C187.722 45.4396 187.931 45.5608 188.047 45.7584L193.887 55.7534C194.136 56.1799 194.745 56.1781 194.992 55.75L200.748 45.7618C200.863 45.5622 201.074 45.4396 201.301 45.4396H202.141C202.495 45.4396 202.782 45.7305 202.783 46.0898L202.803 60.8132C202.804 61.1732 202.517 61.4652 202.162 61.4652H201.28Z" fill="#1A1A1A"/>
    <path d="M218.02 55.467C218.02 55.4934 218.02 55.5211 218.019 55.5501C218.011 55.8817 217.728 56.1309 217.401 56.1309H209.012C208.625 56.1309 208.322 56.4786 208.433 56.8545C208.653 57.5957 209.062 58.2169 209.658 58.718C210.454 59.3589 211.439 59.6795 212.611 59.6795C213.765 59.6795 214.739 59.3599 215.53 58.7206C215.832 58.4763 216.282 58.4783 216.533 58.7766L216.897 59.2101C217.103 59.4539 217.105 59.8169 216.875 60.0366C216.407 60.4833 215.857 60.8374 215.225 61.0989C214.429 61.4347 213.535 61.6025 212.543 61.6025C211.281 61.6025 210.162 61.3431 209.185 60.8242C208.208 60.29 207.449 59.5498 206.908 58.6035C206.382 57.6572 206.119 56.5888 206.119 55.3984C206.119 54.2231 206.375 53.1624 206.886 52.2161C207.412 51.2698 208.125 50.5373 209.027 50.0183C209.944 49.4841 210.973 49.217 212.115 49.217C213.257 49.217 214.271 49.4841 215.158 50.0183C216.059 50.5373 216.758 51.2698 217.254 52.2161C217.765 53.1624 218.02 54.246 218.02 55.467ZM212.115 51.0714C211.078 51.0714 210.206 51.3919 209.5 52.033C208.976 52.519 208.616 53.119 208.421 53.8332C208.318 54.2086 208.62 54.5513 209.004 54.5513H215.224C215.609 54.5513 215.912 54.2077 215.805 53.8328C215.606 53.1318 215.24 52.5396 214.707 52.0559C214.016 51.3996 213.152 51.0714 212.115 51.0714Z" fill="#1A1A1A"/>
    <path d="M246.264 60.7736L259.315 47.5174C259.861 46.9626 260.602 46.651 261.374 46.651C262.147 46.651 262.887 46.9626 263.433 47.5174C263.704 47.7919 263.919 48.118 264.066 48.477C264.213 48.836 264.288 49.2208 264.289 49.6095C264.289 49.9982 264.213 50.3831 264.067 50.7422C263.921 51.1013 263.706 51.4277 263.436 51.7025L252.444 62.8672C251.897 63.422 251.157 63.7336 250.384 63.7336C249.612 63.7336 248.871 63.422 248.325 62.8672L246.264 60.7736Z" fill="#FFAC30"/>
    <path d="M252.418 51.7066L241.441 62.8715C240.894 63.4263 240.153 63.738 239.381 63.738C238.608 63.738 237.867 63.4263 237.32 62.8715L231.703 57.1659C231.154 56.6128 230.844 55.8609 230.841 55.0756C230.838 54.2902 231.142 53.5358 231.686 52.9784C232.231 52.4209 232.971 52.1059 233.744 52.1028C234.518 52.0997 235.26 52.4087 235.809 52.9618L238.248 55.4393L238.446 55.6375L239.381 56.5894L240.406 55.5473L248.306 47.5206C248.862 47.0137 249.587 46.7427 250.334 46.7634C251.08 46.784 251.79 47.0949 252.318 47.6317C252.845 48.1686 253.15 48.8906 253.168 49.6488C253.187 50.407 252.919 51.1435 252.418 51.7066Z" fill="#FFAC30"/>
    <path d="M240.406 55.5474L239.381 56.5894L238.447 55.6375C238.725 55.8736 239.081 55.9953 239.444 55.9787C239.806 55.962 240.15 55.8082 240.406 55.5474Z" fill="#FFAC30"/>
</svg>
